<svg width="130" height="44" viewBox="0 0 130 44" fill="none" xmlns="http://www.w3.org/2000/svg">
<g opacity="0.8">
<path d="M16.8774 34.4382C17.1066 34.7326 17.3561 34.9407 17.6259 35.0625C17.9009 35.1792 18.1988 35.2376 18.5196 35.2376C19.1662 35.2376 19.6703 35.0041 20.0318 34.5372C20.3934 34.0702 20.5741 33.3469 20.5741 32.3674C20.5741 31.4741 20.4163 30.8218 20.1006 30.4107C19.79 29.9996 19.3444 29.794 18.764 29.794C18.3617 29.794 18.0104 29.8854 17.7099 30.0681C17.4146 30.2458 17.1371 30.5021 16.8774 30.8371V34.4382ZM16.8774 29.6494C17.1982 29.2992 17.5572 29.02 17.9544 28.8119C18.3515 28.6038 18.8047 28.4998 19.3139 28.4998C19.7671 28.4998 20.1744 28.5886 20.5359 28.7662C20.9026 28.9388 21.2132 29.19 21.4678 29.52C21.7224 29.8499 21.9184 30.2508 22.0559 30.7229C22.1934 31.1898 22.2621 31.7177 22.2621 32.3064C22.2621 32.9358 22.1832 33.5094 22.0253 34.0271C21.8726 34.5397 21.6511 34.9813 21.3608 35.3518C21.0706 35.7172 20.7193 36.0015 20.3068 36.2045C19.8944 36.4024 19.4335 36.5014 18.9244 36.5014C18.6749 36.5014 18.4483 36.476 18.2446 36.4253C18.0409 36.3796 17.8525 36.3111 17.6794 36.2197C17.5063 36.1283 17.3459 36.0192 17.1982 35.8923C17.0556 35.7654 16.9182 35.6208 16.7858 35.4584L16.717 36.0598C16.6916 36.1766 16.6457 36.2603 16.5795 36.3111C16.5134 36.3618 16.4217 36.3872 16.3046 36.3872H15.2353V25.1194H16.8774V29.6494Z" fill="#1F3965"/>
<path d="M30.5611 28.6216L26.2686 38.5951C26.2126 38.7118 26.1439 38.8032 26.0624 38.8692C25.986 38.9351 25.8664 38.9681 25.7034 38.9681H24.489L25.9249 35.8619L22.7476 28.6216H24.1758C24.3133 28.6216 24.4177 28.6546 24.489 28.7206C24.5654 28.7815 24.6214 28.8551 24.657 28.9413L26.513 33.3495C26.5588 33.4764 26.5996 33.6033 26.6352 33.7301C26.676 33.852 26.7141 33.9788 26.7498 34.1108C26.7905 33.9788 26.8313 33.8494 26.872 33.7225C26.9127 33.5956 26.9586 33.4688 27.0095 33.3419L28.7891 28.9413C28.8247 28.85 28.8833 28.7739 28.9648 28.7129C29.0513 28.652 29.1455 28.6216 29.2474 28.6216H30.5611Z" fill="#1F3965"/>
<path fill-rule="evenodd" clip-rule="evenodd" d="M46.6074 24.3946C46.6063 24.3514 46.5948 24.3091 46.5739 24.2714C46.5529 24.2337 46.5232 24.2017 46.4871 24.1781C46.4511 24.1545 46.4099 24.1401 46.3672 24.1361C46.3244 24.1321 46.2812 24.1386 46.2415 24.1551L42.5966 25.7219C42.5494 25.7422 42.5091 25.776 42.4807 25.8191C42.4522 25.8621 42.437 25.9126 42.4368 25.9642V26.5278C42.4368 26.5632 42.4455 26.5979 42.4621 26.6291C42.4788 26.6602 42.5028 26.6867 42.5321 26.7062C42.5613 26.7257 42.595 26.7377 42.63 26.741C42.665 26.7443 42.7002 26.7388 42.7326 26.7251L46.4209 25.1456C46.479 25.1209 46.5285 25.0795 46.5631 25.0266C46.5978 24.9737 46.6161 24.9116 46.6158 24.8483L46.6074 24.3946Z" fill="#1DA1F2"/>
<path fill-rule="evenodd" clip-rule="evenodd" d="M41.7629 25.722L38.1054 24.1524C38.0733 24.1373 38.0384 24.1291 38.003 24.1284C37.9528 24.1287 37.9039 24.1444 37.8628 24.1735C37.8258 24.1964 37.7954 24.2286 37.7745 24.2669C37.7537 24.3052 37.743 24.3482 37.7436 24.3919V24.8146C37.7436 24.8842 37.7639 24.9524 37.802 25.0105C37.8402 25.0686 37.8945 25.1141 37.9582 25.1415L41.6437 26.7238C41.6745 26.7365 41.7078 26.7414 41.7409 26.7381C41.774 26.7348 41.8057 26.7234 41.8334 26.7049C41.861 26.6864 41.8838 26.6614 41.8996 26.632C41.9154 26.6027 41.9238 26.5698 41.9241 26.5364V25.9644C41.9239 25.9125 41.9086 25.8619 41.8799 25.8187C41.8512 25.7756 41.8105 25.742 41.7629 25.722Z" fill="#1DA1F2"/>
<path fill-rule="evenodd" clip-rule="evenodd" d="M42.5987 27.358C42.5518 27.3776 42.5118 27.4109 42.4838 27.4536C42.4558 27.4963 42.4411 27.5464 42.4417 27.5975V28.2175C42.4428 28.2395 42.449 28.261 42.4599 28.2801C42.4707 28.2993 42.4859 28.3156 42.5041 28.3279C42.5224 28.34 42.5433 28.3478 42.565 28.3504C42.5868 28.353 42.6089 28.3504 42.6296 28.3429L46.6137 26.6295L46.8773 26.5182L47.1394 26.4055L47.9525 26.049C48.0142 26.0226 48.0667 25.9783 48.1034 25.9219C48.14 25.8655 48.1593 25.7994 48.1586 25.732V25.3656C48.1591 25.3225 48.1489 25.2799 48.1288 25.2417C48.1088 25.2035 48.0795 25.1711 48.0436 25.1472C48.0021 25.1192 47.9535 25.1035 47.9034 25.1022C47.8671 25.1022 47.8312 25.1104 47.7983 25.1261L47.1366 25.4079L46.8745 25.5192L46.6123 25.6319L42.5987 27.358Z" fill="#1DA1F2"/>
<path fill-rule="evenodd" clip-rule="evenodd" d="M41.7633 27.3581L37.7399 25.6264L37.4777 25.5165L37.2156 25.4024L36.5511 25.1205C36.5185 25.1074 36.4838 25.1002 36.4487 25.0994C36.4145 25.099 36.3806 25.1055 36.3489 25.1183C36.3173 25.1312 36.2884 25.1502 36.264 25.1743C36.2397 25.1984 36.2203 25.227 36.207 25.2587C36.1937 25.2903 36.1867 25.3243 36.1866 25.3587V25.7673C36.1862 25.8227 36.2021 25.877 36.2323 25.9233C36.2625 25.9697 36.3055 26.0061 36.3562 26.028L37.2113 26.3943L37.4735 26.5084L37.7371 26.6212L41.7016 28.3233C41.7254 28.3333 41.7511 28.3374 41.7768 28.3352C41.8024 28.333 41.8272 28.3247 41.8489 28.3109C41.8707 28.297 41.8888 28.2782 41.9017 28.2558C41.9146 28.2334 41.922 28.2082 41.9231 28.1824V27.599C41.9236 27.5474 41.9085 27.4969 41.88 27.4539C41.8515 27.4109 41.8109 27.3775 41.7633 27.3581Z" fill="#1DA1F2"/>
<path fill-rule="evenodd" clip-rule="evenodd" d="M49.7685 26.2447C49.7693 26.201 49.7589 26.1578 49.7383 26.1193C49.7176 26.0809 49.6875 26.0483 49.6508 26.0249C49.6094 25.9964 49.5607 25.9808 49.5106 25.9798C49.4752 25.9805 49.4403 25.9886 49.4083 26.0038L48.6863 26.3124L48.4242 26.4265L48.162 26.5392L47.1414 26.9774L46.8792 27.0901L46.6157 27.2043L42.6063 28.9261C42.5588 28.9457 42.5183 28.9791 42.4898 29.022C42.4613 29.065 42.4462 29.1154 42.4465 29.167V31.7511C42.4472 31.7442 42.4472 31.737 42.4465 31.73V32.1231V32.4049V35.5767C42.4458 35.598 42.4482 35.6194 42.4535 35.6401V36.0346V36.3164V39.5036C42.4525 39.5483 42.4635 39.5926 42.4855 39.6315C42.5075 39.6705 42.5395 39.7027 42.5783 39.7248C42.6155 39.749 42.6583 39.763 42.7026 39.7655C42.7468 39.7679 42.7909 39.7588 42.8306 39.7389L49.683 36.2516C49.7261 36.2296 49.762 36.1958 49.7869 36.1542C49.8116 36.1126 49.8243 36.0648 49.8232 36.0163L49.7685 26.2447Z" fill="#1DA1F2"/>
<path fill-rule="evenodd" clip-rule="evenodd" d="M41.7634 28.9259L37.7357 27.1928L37.4736 27.0801L37.21 26.9688L36.1866 26.5292L35.9245 26.415L35.6623 26.3023L34.9431 25.9937C34.9098 25.9799 34.8741 25.9728 34.838 25.9726C34.7881 25.9734 34.7395 25.9886 34.6978 26.0163C34.6616 26.0396 34.6318 26.0716 34.6112 26.1096C34.5906 26.1475 34.5799 26.1901 34.5801 26.2333L34.5506 36.0161C34.5501 36.0645 34.5629 36.1121 34.5876 36.1537C34.6124 36.1952 34.6481 36.229 34.6908 36.2514L41.5432 39.7387C41.5834 39.7582 41.6277 39.7674 41.6722 39.7655C41.7168 39.7635 41.7601 39.7504 41.7984 39.7275C41.8368 39.7042 41.8686 39.6713 41.8907 39.6321C41.9128 39.5928 41.9245 39.5485 41.9245 39.5034V29.1668C41.9247 29.1151 41.9094 29.0645 41.8807 29.0216C41.8519 28.9786 41.8111 28.9453 41.7634 28.9259Z" fill="#1DA1F2"/>
<path fill-rule="evenodd" clip-rule="evenodd" d="M40.5874 35.695C40.5438 35.7208 40.4941 35.7346 40.4434 35.7349C40.3927 35.7352 40.3428 35.722 40.2988 35.6967C40.2548 35.6714 40.2183 35.6348 40.1929 35.5907C40.1675 35.5466 40.1542 35.4965 40.1543 35.4455V32.8783V30.3111C40.1543 30.2603 40.1676 30.2103 40.1928 30.1663C40.218 30.1222 40.2542 30.0856 40.2979 30.0601C40.3417 30.0346 40.3913 30.021 40.4418 30.0208C40.4924 30.0206 40.5421 30.0337 40.5861 30.0589L42.7997 31.3397L45.0132 32.6205C45.0569 32.646 45.0931 32.6826 45.1182 32.7266C45.1434 32.7706 45.1566 32.8205 45.1566 32.8713C45.1566 32.922 45.1434 32.9719 45.1182 33.0159C45.0931 33.0599 45.0569 33.0965 45.0132 33.1221L42.8025 34.4085L40.5874 35.695Z" fill="white"/>
<path d="M61.7645 28.2106H58.6947V36.8794H56.8008V28.2106H53.731V26.6467H61.7645V28.2106Z" fill="#1F3965"/>
<path d="M65.7841 32.4132C65.7841 32.1868 65.7512 31.9745 65.6855 31.7763C65.6245 31.5735 65.5306 31.3966 65.4039 31.2456C65.2771 31.0946 65.1152 30.9767 64.9181 30.8918C64.7256 30.8022 64.5003 30.7573 64.2421 30.7573C63.7399 30.7573 63.3433 30.9012 63.0523 31.189C62.766 31.4768 62.5829 31.8849 62.5031 32.4132H65.7841ZM62.4679 33.4676C62.496 33.8404 62.5618 34.1635 62.665 34.4371C62.7683 34.706 62.9044 34.9302 63.0734 35.1094C63.2424 35.284 63.4419 35.4161 63.6718 35.5057C63.9066 35.5906 64.1647 35.6331 64.4463 35.6331C64.728 35.6331 64.9697 35.6001 65.1715 35.534C65.3781 35.468 65.5564 35.3949 65.7066 35.3146C65.8615 35.2344 65.9953 35.1613 66.108 35.0953C66.2253 35.0292 66.338 34.9962 66.4459 34.9962C66.5914 34.9962 66.6994 35.0505 66.7698 35.1589L67.2697 35.7958C67.0772 36.0223 66.8613 36.2134 66.6219 36.369C66.3825 36.52 66.1314 36.6427 65.8686 36.737C65.6104 36.8267 65.3452 36.8904 65.073 36.9281C64.8054 36.9659 64.5449 36.9847 64.2914 36.9847C63.7892 36.9847 63.3222 36.9022 62.8903 36.737C62.4585 36.5672 62.083 36.3195 61.7638 35.994C61.4446 35.6638 61.1935 35.258 61.0104 34.7768C60.8274 34.2909 60.7358 33.7295 60.7358 33.0926C60.7358 32.5972 60.8157 32.1326 60.9752 31.6985C61.1348 31.2598 61.3625 30.88 61.6582 30.5592C61.9586 30.2336 62.3224 29.9765 62.7495 29.7878C63.1814 29.5991 63.6672 29.5048 64.2069 29.5048C64.6623 29.5048 65.0824 29.5779 65.4672 29.7241C65.8522 29.8704 66.1831 30.085 66.46 30.3681C66.737 30.6465 66.9528 30.9908 67.1077 31.4013C67.2673 31.807 67.3471 32.2717 67.3471 32.7954C67.3471 33.0596 67.319 33.2388 67.2626 33.3332C67.2063 33.4228 67.0984 33.4676 66.9388 33.4676H62.4679Z" fill="#1F3965"/>
<path d="M72.4687 33.7797C71.9664 33.8034 71.544 33.8482 71.2014 33.9142C70.8587 33.9755 70.5841 34.0557 70.3776 34.1548C70.171 34.2539 70.0232 34.3695 69.934 34.5015C69.8448 34.6337 69.8003 34.7775 69.8003 34.9332C69.8003 35.2399 69.8894 35.4593 70.0678 35.5913C70.2509 35.7235 70.4879 35.7895 70.7789 35.7895C71.1356 35.7895 71.4431 35.7258 71.7013 35.5984C71.9641 35.4664 72.2199 35.2682 72.4687 35.004V33.7797ZM68.4836 30.6307C69.3144 29.8664 70.3142 29.4843 71.483 29.4843C71.9055 29.4843 72.2833 29.555 72.6166 29.6966C72.9498 29.8334 73.2314 30.0268 73.4615 30.2768C73.6914 30.5222 73.8651 30.817 73.9825 31.1614C74.1045 31.5058 74.1655 31.8832 74.1655 32.2937V36.8793H73.377C73.2127 36.8793 73.0859 36.8557 72.9968 36.8085C72.9076 36.7566 72.8372 36.6552 72.7855 36.5042L72.6307 35.9806C72.4476 36.1457 72.2692 36.2919 72.0956 36.4193C71.9219 36.542 71.7411 36.6458 71.5534 36.7307C71.3656 36.8156 71.1638 36.8793 70.9479 36.9217C70.7367 36.9689 70.502 36.9925 70.2438 36.9925C69.9387 36.9925 69.6571 36.9524 69.3989 36.8722C69.1408 36.7873 68.9178 36.6623 68.7301 36.4971C68.5423 36.332 68.3968 36.1268 68.2935 35.8815C68.1903 35.6362 68.1386 35.3507 68.1386 35.0252C68.1386 34.8412 68.1691 34.6596 68.2302 34.4803C68.2912 34.2963 68.3897 34.1218 68.5259 33.9567C68.6667 33.7915 68.8474 33.6359 69.068 33.4896C69.2886 33.3434 69.5585 33.216 69.8777 33.1075C70.2016 32.999 70.5771 32.9117 71.0042 32.8456C71.4313 32.7749 71.9195 32.7324 72.4687 32.7183V32.2937C72.4687 31.8078 72.3654 31.4492 72.1589 31.218C71.9524 30.9821 71.6543 30.8642 71.2647 30.8642C70.9831 30.8642 70.7484 30.8972 70.5607 30.9633C70.3776 31.0293 70.2157 31.1048 70.0749 31.1897C69.934 31.2699 69.8049 31.343 69.6876 31.4091C69.575 31.4752 69.4482 31.5082 69.3074 31.5082C69.1853 31.5082 69.0821 31.4775 68.9976 31.4162C68.9131 31.3501 68.845 31.2746 68.7934 31.1897L68.4836 30.6307Z" fill="#1F3965"/>
<path d="M80.9779 31.1536C80.9264 31.2197 80.8749 31.2716 80.823 31.3093C80.7763 31.3471 80.7059 31.3659 80.6117 31.3659C80.5228 31.3659 80.4357 31.34 80.3512 31.2881C80.2667 31.2314 80.166 31.1701 80.0485 31.1041C79.9314 31.0333 79.7906 30.972 79.626 30.9201C79.4667 30.8635 79.2669 30.8352 79.0276 30.8352C78.7226 30.8352 78.4551 30.8918 78.2249 31.005C77.9952 31.1135 77.8025 31.2716 77.6476 31.4791C77.4975 31.6867 77.3849 31.9391 77.3096 32.2363C77.2348 32.5288 77.197 32.8614 77.197 33.2341C77.197 33.621 77.237 33.9654 77.3167 34.2673C77.4011 34.5692 77.5208 34.824 77.6757 35.0316C77.8306 35.2344 78.0185 35.3901 78.239 35.4986C78.4599 35.6024 78.7085 35.6543 78.9853 35.6543C79.2625 35.6543 79.4852 35.6213 79.6542 35.5552C79.828 35.4845 79.9737 35.409 80.0907 35.3288C80.2082 35.2439 80.309 35.1684 80.3935 35.1023C80.4828 35.0316 80.5814 34.9962 80.6892 34.9962C80.83 34.9962 80.9356 35.0505 81.006 35.1589L81.5059 35.7958C81.3136 36.0223 81.1046 36.2134 80.8793 36.369C80.654 36.52 80.4194 36.6427 80.1752 36.737C79.9358 36.8267 79.6872 36.8904 79.4289 36.9281C79.1754 36.9659 78.9219 36.9847 78.6685 36.9847C78.2227 36.9847 77.8025 36.9022 77.4082 36.737C77.0139 36.5672 76.6689 36.3219 76.3732 36.0011C76.0775 35.6803 75.8429 35.2887 75.6693 34.8263C75.5004 34.3593 75.4159 33.8285 75.4159 33.2341C75.4159 32.701 75.4909 32.208 75.6412 31.7551C75.7958 31.2975 76.0212 30.9036 76.3169 30.5733C76.6126 30.2384 76.9787 29.9765 77.4152 29.7878C77.8518 29.5991 78.3543 29.5048 78.9219 29.5048C79.4619 29.5048 79.9336 29.5921 80.3371 29.7666C80.7455 29.9412 81.1116 30.1912 81.4355 30.5167L80.9779 31.1536Z" fill="#1F3965"/>
<path d="M84.3353 30.3967C84.617 30.1326 84.9267 29.9179 85.2647 29.7528C85.6027 29.5877 85.9991 29.5051 86.4546 29.5051C86.8489 29.5051 87.1987 29.5735 87.5037 29.7103C87.8086 29.8424 88.0621 30.0312 88.2641 30.2764C88.4705 30.5171 88.6254 30.8072 88.7288 31.1469C88.8366 31.4819 88.8907 31.8522 88.8907 32.2579V36.8789H87.1516V32.2579C87.1516 31.8145 87.0509 31.4724 86.8489 31.2318C86.6469 30.9865 86.3397 30.8638 85.9265 30.8638C85.626 30.8638 85.3444 30.9322 85.0816 31.069C84.8189 31.2059 84.5699 31.3922 84.3353 31.6281V36.8789H82.5963V26.3631H84.3353V30.3967Z" fill="#1F3965"/>
<path d="M90.5445 36.8786V29.618H91.6077C91.833 29.618 91.9808 29.7241 92.0512 29.9364L92.1639 30.4743C92.2906 30.3327 92.4222 30.203 92.5582 30.085C92.699 29.9671 92.8469 29.8657 93.0017 29.7807C93.1615 29.6958 93.3305 29.6298 93.5087 29.5826C93.6917 29.5307 93.8915 29.5048 94.1071 29.5048C94.5626 29.5048 94.9358 29.6298 95.2266 29.8798C95.5223 30.1252 95.7432 30.453 95.8885 30.8635C96.0011 30.6229 96.1419 30.4176 96.3109 30.2478C96.4799 30.0733 96.6656 29.9317 96.8671 29.8232C97.0691 29.7147 97.2825 29.6345 97.5078 29.5826C97.738 29.5307 97.9681 29.5048 98.1978 29.5048C98.597 29.5048 98.9512 29.5661 99.261 29.6888C99.5708 29.8114 99.8313 29.9907 100.043 30.2266C100.254 30.4625 100.413 30.7502 100.521 31.0899C100.634 31.4296 100.69 31.8188 100.69 32.2576V36.8786H98.9512V32.2576C98.9512 31.7952 98.8504 31.4485 98.6484 31.2173C98.4469 30.9814 98.1512 30.8635 97.7613 30.8635C97.5831 30.8635 97.4163 30.8942 97.2614 30.9555C97.1114 31.0168 96.9776 31.1065 96.8601 31.2244C96.7474 31.3376 96.6585 31.4815 96.5925 31.656C96.527 31.8306 96.494 32.0311 96.494 32.2576V36.8786H94.7479V32.2576C94.7479 31.7717 94.6493 31.4178 94.4521 31.1961C94.2598 30.9743 93.976 30.8635 93.6002 30.8635C93.3467 30.8635 93.11 30.9272 92.8891 31.0545C92.6735 31.1772 92.4715 31.3471 92.2836 31.564V36.8786H90.5445Z" fill="#1F3965"/>
<path d="M104.146 29.6185V36.8791H102.4V29.6185H104.146ZM104.385 27.5026C104.385 27.6536 104.355 27.7951 104.294 27.9272C104.233 28.0593 104.151 28.1749 104.048 28.274C103.949 28.373 103.831 28.4533 103.695 28.5146C103.56 28.5712 103.414 28.5995 103.259 28.5995C103.109 28.5995 102.965 28.5712 102.829 28.5146C102.698 28.4533 102.583 28.373 102.484 28.274C102.386 28.1749 102.306 28.0593 102.245 27.9272C102.189 27.7951 102.161 27.6536 102.161 27.5026C102.161 27.3469 102.189 27.2007 102.245 27.0639C102.306 26.9271 102.386 26.8091 102.484 26.71C102.583 26.611 102.698 26.5331 102.829 26.4765C102.965 26.4152 103.109 26.3845 103.259 26.3845C103.414 26.3845 103.56 26.4152 103.695 26.4765C103.831 26.5331 103.949 26.611 104.048 26.71C104.151 26.8091 104.233 26.9271 104.294 27.0639C104.355 27.2007 104.385 27.3469 104.385 27.5026Z" fill="#1F3965"/>
<path d="M107.545 30.5096C107.691 30.3634 107.843 30.229 108.003 30.1063C108.167 29.9789 108.339 29.8727 108.517 29.7878C108.7 29.6982 108.895 29.6298 109.101 29.5826C109.308 29.5307 109.533 29.5048 109.777 29.5048C110.172 29.5048 110.521 29.5732 110.826 29.71C111.131 29.8421 111.385 30.0308 111.587 30.2761C111.793 30.5167 111.948 30.8069 112.051 31.1465C112.159 31.4815 112.213 31.8518 112.213 32.2576V36.8786H110.474V32.2576C110.474 31.8141 110.374 31.4721 110.172 31.2314C109.97 30.9862 109.662 30.8635 109.249 30.8635C108.949 30.8635 108.667 30.9319 108.404 31.0687C108.142 31.2055 107.893 31.3919 107.658 31.6277V36.8786H105.919V29.618H106.982C107.207 29.618 107.355 29.7241 107.426 29.9364L107.545 30.5096Z" fill="#1F3965"/>
<path d="M116.179 36.992C115.55 36.992 115.066 36.815 114.728 36.4612C114.395 36.1027 114.229 35.6097 114.229 34.9822V30.9273H113.489C113.395 30.9273 113.316 30.8967 113.25 30.8353C113.184 30.774 113.151 30.682 113.151 30.5593V29.8658L114.313 29.6748L114.679 27.6933C114.703 27.599 114.747 27.5259 114.813 27.474C114.879 27.4221 114.963 27.3961 115.066 27.3961H115.968V29.6819H117.897V30.9273H115.968V34.8619C115.968 35.0884 116.021 35.2653 116.13 35.3926C116.242 35.52 116.395 35.5837 116.587 35.5837C116.695 35.5837 116.784 35.5719 116.855 35.5483C116.93 35.52 116.993 35.4917 117.045 35.4634C117.101 35.4351 117.151 35.4092 117.193 35.3856C117.235 35.3573 117.277 35.3431 117.319 35.3431C117.371 35.3431 117.413 35.3573 117.446 35.3856C117.479 35.4092 117.514 35.4469 117.552 35.4988L118.073 36.348C117.819 36.5603 117.528 36.7207 117.2 36.8292C116.871 36.9377 116.531 36.992 116.179 36.992Z" fill="#1F3965"/>
</g>
<path d="M0 2.88282V0H15.1951V2.88282H9.3086V18.9839H5.88646V2.88282H0Z" fill="#1F2937"/>
<path d="M20.9183 19.262C19.4862 19.262 18.2494 18.9654 17.2079 18.3722C16.1726 17.7727 15.3759 16.9261 14.818 15.8323C14.26 14.7323 13.981 13.4377 13.981 11.9484C13.981 10.4838 14.26 9.19844 14.818 8.09228C15.3821 6.97993 16.1695 6.11478 17.18 5.49681C18.1905 4.87267 19.3777 4.5606 20.7416 4.5606C21.622 4.5606 22.4527 4.70273 23.2338 4.98699C24.0212 5.26508 24.7155 5.69765 25.3169 6.28472C25.9244 6.87179 26.4018 7.61953 26.749 8.52794C27.0962 9.43017 27.2697 10.5054 27.2697 11.7537V12.7826H15.5619V10.5209H24.0429C24.0367 9.8782 23.8972 9.30658 23.6244 8.80603C23.3516 8.29929 22.9704 7.90071 22.4806 7.61026C21.997 7.31982 21.4329 7.17459 20.7881 7.17459C20.1 7.17459 19.4955 7.34145 18.9748 7.67515C18.454 8.00267 18.0479 8.43525 17.7566 8.97288C17.4714 9.50433 17.3257 10.0883 17.3195 10.7248V12.6992C17.3195 13.5273 17.4714 14.238 17.7752 14.8312C18.0789 15.4183 18.5036 15.8694 19.0492 16.1846C19.5947 16.4935 20.2333 16.648 20.9648 16.648C21.4546 16.648 21.8978 16.58 22.2946 16.4441C22.6914 16.302 23.0355 16.0949 23.3268 15.823C23.6182 15.5511 23.8383 15.2143 23.9871 14.8127L27.1303 15.1649C26.9319 15.993 26.5537 16.716 25.9957 17.334C25.444 17.9458 24.7372 18.4216 23.8755 18.7615C23.0138 19.0952 22.028 19.262 20.9183 19.262Z" fill="#1F2937"/>
<path d="M32.9186 19.2713C32.0135 19.2713 31.1982 19.1106 30.4729 18.7893C29.7537 18.4618 29.1834 17.9797 28.7618 17.3432C28.3464 16.7067 28.1388 15.9219 28.1388 14.9888C28.1388 14.1854 28.2875 13.5211 28.5851 12.9958C28.8827 12.4706 29.2888 12.0504 29.8033 11.7352C30.3179 11.42 30.8976 11.1821 31.5423 11.0214C32.1933 10.8546 32.8659 10.7341 33.5603 10.6599C34.3972 10.5734 35.076 10.4962 35.5968 10.4282C36.1176 10.354 36.4957 10.2428 36.7313 10.0945C36.9731 9.94 37.094 9.70208 37.094 9.38074V9.32512C37.094 8.62682 36.8863 8.0861 36.4709 7.70296C36.0556 7.31982 35.4573 7.12825 34.6762 7.12825C33.8516 7.12825 33.1976 7.30746 32.714 7.66588C32.2367 8.0243 31.9143 8.44761 31.7469 8.9358L28.6037 8.49086C28.8517 7.62571 29.2609 6.90269 29.8312 6.3218C30.4016 5.73473 31.099 5.29598 31.9236 5.00553C32.7481 4.70891 33.6594 4.5606 34.6576 4.5606C35.3457 4.5606 36.0308 4.64093 36.7127 4.8016C37.3947 4.96227 38.0177 5.228 38.5819 5.59878C39.146 5.96338 39.5986 6.46084 39.9396 7.09117C40.2868 7.7215 40.4603 8.5094 40.4603 9.45489V18.9839H37.2242V17.0281H37.1126C36.908 17.4236 36.6197 17.7944 36.2478 18.1404C35.882 18.4803 35.4201 18.7553 34.8622 18.9654C34.3104 19.1693 33.6625 19.2713 32.9186 19.2713ZM33.7927 16.8056C34.4685 16.8056 35.0543 16.6727 35.5503 16.407C36.0463 16.1351 36.4275 15.7767 36.6941 15.3318C36.9669 14.8868 37.1033 14.4017 37.1033 13.8764V12.1987C36.9979 12.2852 36.8181 12.3655 36.5639 12.4397C36.3159 12.5138 36.037 12.5787 35.727 12.6343C35.417 12.6899 35.1101 12.7394 34.8064 12.7826C34.5026 12.8259 34.2391 12.863 34.0159 12.8939C33.5138 12.9619 33.0643 13.0731 32.6675 13.2276C32.2708 13.3821 31.9577 13.5984 31.7283 13.8764C31.4989 14.1483 31.3842 14.5006 31.3842 14.9332C31.3842 15.5511 31.6105 16.0177 32.0631 16.3329C32.5156 16.648 33.0922 16.8056 33.7927 16.8056Z" fill="#1F2937"/>
<path d="M48.7665 19.262C47.3406 19.262 46.1162 18.95 45.0933 18.3258C44.0765 17.7017 43.2923 16.8396 42.7405 15.7396C42.195 14.6335 41.9222 13.3604 41.9222 11.9206C41.9222 10.4745 42.2012 9.19844 42.7591 8.09228C43.3171 6.97993 44.1044 6.11478 45.1212 5.49681C46.1441 4.87267 47.353 4.5606 48.7479 4.5606C49.9072 4.5606 50.9332 4.77379 51.8259 5.20019C52.7249 5.62041 53.4409 6.21675 53.9741 6.9892C54.5072 7.75548 54.811 8.65154 54.8854 9.67736H51.6679C51.5377 8.99142 51.2277 8.4198 50.7379 7.9625C50.2544 7.49903 49.6065 7.26729 48.7944 7.26729C48.1062 7.26729 47.5018 7.45268 46.981 7.82346C46.4602 8.18806 46.0542 8.71333 45.7628 9.39928C45.4776 10.0852 45.335 10.9071 45.335 11.865C45.335 12.8352 45.4776 13.6694 45.7628 14.3677C46.048 15.0599 46.4478 15.5944 46.9624 15.9714C47.4832 16.3421 48.0938 16.5275 48.7944 16.5275C49.2903 16.5275 49.7336 16.4348 50.1242 16.2494C50.5209 16.0579 50.8526 15.7829 51.1192 15.4245C51.3858 15.066 51.5687 14.6304 51.6679 14.1175H54.8854C54.8048 15.1247 54.5072 16.0177 53.9927 16.7963C53.4781 17.5688 52.7776 18.1744 51.891 18.6132C51.0045 19.0457 49.963 19.262 48.7665 19.262Z" fill="#1F2937"/>
<path d="M59.7066 10.6414V18.9839H56.3403V0H59.6322V7.16532H59.7996C60.1344 6.36197 60.6521 5.72855 61.3526 5.26508C62.0594 4.79542 62.9583 4.5606 64.0494 4.5606C65.0413 4.5606 65.9062 4.76761 66.6439 5.18165C67.3817 5.59569 67.952 6.2013 68.355 6.99847C68.7642 7.79565 68.9688 8.76895 68.9688 9.91837V18.9839H65.6024V10.4375C65.6024 9.47961 65.3544 8.73496 64.8585 8.20351C64.3687 7.66588 63.6805 7.39706 62.794 7.39706C62.1989 7.39706 61.6657 7.52684 61.1945 7.78638C60.7296 8.03975 60.3638 8.40744 60.0972 8.88945C59.8368 9.37147 59.7066 9.95545 59.7066 10.6414Z" fill="#1F2937"/>
<path d="M71.0909 18.9839V4.74599H74.3084V7.16532H74.4758C74.7734 6.34961 75.2662 5.7131 75.9544 5.25581C76.6425 4.79233 77.464 4.5606 78.4187 4.5606C79.3858 4.5606 80.2011 4.79542 80.8644 5.26508C81.534 5.72855 82.0051 6.36197 82.2779 7.16532H82.4267C82.7429 6.37433 83.276 5.744 84.0262 5.27435C84.7825 4.79851 85.6784 4.5606 86.7137 4.5606C88.028 4.5606 89.1005 4.97463 89.9312 5.80271C90.762 6.63078 91.1773 7.83891 91.1773 9.42708V18.9839H87.8017V9.94618C87.8017 9.06248 87.5661 8.41671 87.0949 8.00885C86.6238 7.59481 86.0472 7.38779 85.3653 7.38779C84.5531 7.38779 83.9177 7.64116 83.4589 8.14789C83.0064 8.64845 82.7801 9.3004 82.7801 10.1038V18.9839H79.4788V9.80713C79.4788 9.07175 79.2556 8.48468 78.8093 8.04593C78.3691 7.60717 77.7925 7.38779 77.0796 7.38779C76.596 7.38779 76.1559 7.51139 75.7591 7.75857C75.3623 7.99958 75.0462 8.34255 74.8106 8.78749C74.575 9.22624 74.4572 9.73916 74.4572 10.3262V18.9839H71.0909Z" fill="#1F2937"/>
<path d="M99.5137 19.262C98.1188 19.262 96.9099 18.9561 95.887 18.3443C94.8641 17.7326 94.0705 16.8767 93.5064 15.7767C92.9484 14.6767 92.6694 13.3913 92.6694 11.9206C92.6694 10.4498 92.9484 9.16136 93.5064 8.0552C94.0705 6.94904 94.8641 6.09006 95.887 5.47828C96.9099 4.86649 98.1188 4.5606 99.5137 4.5606C100.909 4.5606 102.118 4.86649 103.14 5.47828C104.163 6.09006 104.954 6.94904 105.512 8.0552C106.076 9.16136 106.358 10.4498 106.358 11.9206C106.358 13.3913 106.076 14.6767 105.512 15.7767C104.954 16.8767 104.163 17.7326 103.14 18.3443C102.118 18.9561 100.909 19.262 99.5137 19.262ZM99.5323 16.5739C100.289 16.5739 100.921 16.3669 101.429 15.9528C101.938 15.5326 102.316 14.9702 102.564 14.2658C102.818 13.5613 102.945 12.7765 102.945 11.9113C102.945 11.04 102.818 10.2521 102.564 9.54759C102.316 8.83693 101.938 8.27149 101.429 7.85127C100.921 7.43105 100.289 7.22094 99.5323 7.22094C98.7574 7.22094 98.1126 7.43105 97.598 7.85127C97.0897 8.27149 96.7084 8.83693 96.4542 9.54759C96.2063 10.2521 96.0823 11.04 96.0823 11.9113C96.0823 12.7765 96.2063 13.5613 96.4542 14.2658C96.7084 14.9702 97.0897 15.5326 97.598 15.9528C98.1126 16.3669 98.7574 16.5739 99.5323 16.5739Z" fill="#1F2937"/>
<path d="M107.906 18.9839V4.74599H111.17V7.11898H111.319C111.579 6.29708 112.025 5.66367 112.658 5.21873C113.296 4.76761 114.025 4.54206 114.843 4.54206C115.029 4.54206 115.237 4.55133 115.466 4.56986C115.702 4.58222 115.897 4.60385 116.052 4.63475V7.7215C115.909 7.67206 115.683 7.6288 115.373 7.59172C115.069 7.54846 114.775 7.52684 114.49 7.52684C113.876 7.52684 113.324 7.6597 112.834 7.92542C112.351 8.18497 111.97 8.54648 111.691 9.00996C111.412 9.47343 111.272 10.008 111.272 10.6136V18.9839H107.906Z" fill="#1F2937"/>
<path d="M122.715 19.262C121.282 19.262 120.046 18.9654 119.004 18.3722C117.969 17.7727 117.172 16.9261 116.614 15.8323C116.056 14.7323 115.777 13.4377 115.777 11.9484C115.777 10.4838 116.056 9.19844 116.614 8.09228C117.178 6.97993 117.966 6.11478 118.976 5.49681C119.987 4.87267 121.174 4.5606 122.538 4.5606C123.418 4.5606 124.249 4.70273 125.03 4.98699C125.817 5.26508 126.512 5.69765 127.113 6.28472C127.721 6.87179 128.198 7.61953 128.545 8.52794C128.892 9.43017 129.066 10.5054 129.066 11.7537V12.7826H117.358V10.5209H125.839C125.833 9.8782 125.693 9.30658 125.421 8.80603C125.148 8.29929 124.767 7.90071 124.277 7.61026C123.793 7.31982 123.229 7.17459 122.584 7.17459C121.896 7.17459 121.292 7.34145 120.771 7.67515C120.25 8.00267 119.844 8.43525 119.553 8.97288C119.268 9.50433 119.122 10.0883 119.116 10.7248V12.6992C119.116 13.5273 119.268 14.238 119.571 14.8312C119.875 15.4183 120.3 15.8694 120.845 16.1846C121.391 16.4935 122.029 16.648 122.761 16.648C123.251 16.648 123.694 16.58 124.091 16.4441C124.488 16.302 124.832 16.0949 125.123 15.823C125.414 15.5511 125.635 15.2143 125.783 14.8127L128.926 15.1649C128.728 15.993 128.35 16.716 127.792 17.334C127.24 17.9458 126.533 18.4216 125.672 18.7615C124.81 19.0952 123.824 19.262 122.715 19.262Z" fill="#1F2937"/>
</svg>
